<?xml version="1.0" encoding="UTF-8"?>
<svg width="178px" height="219px" viewBox="0 0 178 219" version="1.1" xmlns="http://www.w3.org/2000/svg" xmlns:xlink="http://www.w3.org/1999/xlink">
    <!-- Generator: Sketch 56.3 (81716) - https://sketch.com -->
    <title>Group 3</title>
    <desc>Created with Sketch.</desc>
    <g id="Icons-+-Images" stroke="none" stroke-width="1" fill="none" fill-rule="evenodd">
        <g id="noun_Coins_1408717" transform="translate(-51.000000, 0.000000)" fill="#b88B49" fill-rule="nonzero">
            <g id="Group-3" transform="translate(51.000000, 0.000000)">
                <path d="M124.226888,114 L119.033498,112.142857 C119.580171,111.081633 119.580171,109.755102 119.580171,108.693878 C119.580171,102.857143 113.840108,97.0204082 104,92.7755102 L106.186691,88 C118.213489,93.3061224 124.773561,100.734694 124.773561,108.693878 C125.320233,110.55102 124.773561,112.142857 124.226888,114 Z" id="Path"></path>
                <path d="M69.5915493,136 C69.5915493,136 69.5915493,136 69.5915493,136 C42.8309859,136 20.3521127,126.933333 15,114.133333 L19.8169014,112 C24.3661972,122.666667 45.5070423,130.666667 69.3239437,130.666667 C69.3239437,130.666667 69.3239437,130.666667 69.5915493,130.666667 C76.5492958,130.666667 83.2394366,129.866667 89.9295775,128.533333 L91,133.866667 C84.0422535,135.2 76.8169014,136 69.5915493,136 Z" id="Path"></path>
                <path d="M69.6851211,158 C38.5121107,158 14,145.595506 14,129.685393 L14,110 L19.3287197,110 L19.3287197,129.685393 C19.3287197,142.089888 42.2422145,152.606742 69.4186851,152.606742 C76.3460208,152.606742 83.2733564,152.067416 89.9342561,150.449438 L91,155.842697 C83.8062284,157.191011 76.6124567,158 69.6851211,158 Z" id="Path"></path>
                <path d="M69.8653846,179 C69.599359,179 69.3333333,179 69.3333333,179 C38.474359,179 14,166.595506 14,150.685393 L14,131 L19.3205128,131 L19.3205128,150.685393 C19.3205128,163.089888 42.1987179,173.606742 69.3333333,173.606742 C78.1121795,173.606742 87.1570513,172.52809 95.6698718,170.101124 L97,175.224719 C88.2211538,177.651685 79.1762821,179 69.8653846,179 Z" id="Path"></path>
                <path d="M71.2922636,199 C70.7593123,199 70.226361,199 69.4269341,199 C38.5157593,199 14,186.595506 14,170.685393 L14,151 L19.3295129,151 L19.3295129,170.685393 C19.3295129,183.089888 42.2464183,193.606742 69.4269341,193.606742 C81.6848138,193.876404 93.6762178,191.449438 104.868195,186.865169 L107,191.719101 C95.5415473,196.573034 83.5501433,199 71.2922636,199 Z" id="Path"></path>
                <path d="M69.7142857,219 C38.375,219 14,206.595506 14,190.685393 L14,171 L19.3571429,171 L19.3571429,190.685393 C19.3571429,203.089888 42.3928571,213.606742 69.7142857,213.606742 C89,213.606742 106.946429,208.213483 115.25,200.123596 L119,203.898876 C109.625,213.337079 90.6071429,219 69.7142857,219 Z" id="Path"></path>
                <path d="M54.5,100 C24.0441176,100 0,88 0,72.5333333 C0,64.5333333 6.41176471,57.3333333 17.8995098,52 L20.0367647,56.8 C10.6862745,61.0666667 5.34313725,66.6666667 5.34313725,72.5333333 C5.34313725,84.5333333 27.7843137,94.6666667 54.5,94.6666667 C81.2156863,94.6666667 103.656863,84.5333333 103.656863,72.5333333 C103.656863,70.9333333 103.389706,69.6 102.588235,68.2666667 L107.397059,65.8666667 C108.465686,68 109,70.4 109,72.5333333 C109,88 85.2230392,100 54.5,100 Z" id="Path"></path>
                <path d="M54.5,121 C24.0441176,121 0,109.016304 0,93.5706522 L0,72 L5.34313725,72 L5.34313725,93.5706522 C5.34313725,105.554348 27.7843137,115.673913 54.5,115.673913 C81.2156863,115.673913 103.656863,105.554348 103.656863,93.5706522 L103.656863,72 L109,72 L109,93.5706522 C109,109.016304 85.2230392,121 54.5,121 Z" id="Path"></path>
                <path d="M70.5,55 C39.7769608,55 16,42.9854369 16,27.5 C16,12.0145631 39.7769608,0 70.5,0 C100.955882,0 125,12.0145631 125,27.5 C125,42.9854369 100.955882,55 70.5,55 Z M70.5,5.33980583 C43.7843137,5.33980583 21.3431373,15.4854369 21.3431373,27.5 C21.3431373,39.5145631 43.7843137,49.6601942 70.5,49.6601942 C97.2156863,49.6601942 119.656863,39.5145631 119.656863,27.5 C119.656863,15.4854369 96.9485294,5.33980583 70.5,5.33980583 Z" id="Shape"></path>
                <path d="M70.5,77 C39.7769608,77 16,64.9508197 16,49.6885246 L16,28 L21.3431373,28 L21.3431373,49.6885246 C21.3431373,61.7377049 43.7843137,71.9125683 70.5,71.9125683 C97.2156863,71.9125683 119.656863,61.7377049 119.656863,49.6885246 L119.656863,28 L125,28 L125,49.6885246 C125,64.9508197 100.955882,77 70.5,77 Z" id="Path"></path>
                <path d="M161.204767,208 C148.09101,208 130.695211,194.411656 117.849082,172.830168 C102.326677,146.452793 100.720911,119.808981 113.834667,112.082276 L113.834667,112.082276 C127.216051,104.35557 149.696776,118.743229 165.219182,145.120603 C172.445129,157.376757 176.9948,170.165786 177.797683,181.356188 C178.868194,193.079465 175.656661,201.871923 168.965969,205.868495 C166.824948,207.200686 164.148671,208 161.204767,208 Z M116.778572,116.611724 C106.341092,122.7398 109.017369,147.252108 122.666381,169.899348 C136.047765,192.813027 156.387468,206.934248 166.55732,201.072609 C171.374619,198.408228 173.51564,191.214398 172.712757,181.622626 C171.909874,171.231539 167.627831,159.241823 160.669511,147.518546 C147.288127,124.871305 127.216051,110.750085 116.778572,116.611724 L116.778572,116.611724 Z" id="Shape"></path>
                <path d="M143.204713,219 C130.075022,219 112.658086,205.391521 99.7963479,183.778055 C92.5616204,171.503741 88.0064216,158.695761 87.202563,147.488778 C86.1307515,135.74813 89.3461859,126.942643 96.0450077,122.94015 L114.801709,112 L117.481237,116.53616 L98.7245364,127.476309 C93.9013847,130.144638 91.7577618,137.349127 92.5616204,146.955112 C93.365479,157.361596 97.6527249,169.369077 104.6195,181.109726 C118.017143,204.057357 138.381561,218.199501 148.56377,212.329177 L167.320471,201.389027 L170,205.925187 L151.243299,216.865337 C148.831723,218.466334 145.884242,219 143.204713,219 Z" id="Path"></path>
            </g>
        </g>
    </g>
</svg>
