<?xml version="1.0" encoding="UTF-8"?>
<svg width="28px" height="20px" viewBox="0 0 28 20" version="1.1" xmlns="http://www.w3.org/2000/svg" xmlns:xlink="http://www.w3.org/1999/xlink">
    <!-- Generator: Sketch 56.3 (81716) - https://sketch.com -->
    <title>Shape</title>
    <desc>Created with Sketch.</desc>
    <g id="Home" stroke="none" stroke-width="1" fill="none" fill-rule="evenodd">
        <g id="Desktop" transform="translate(-219.000000, -1525.000000)" fill="#FFFFFF" fill-rule="nonzero">
            <g id="discord-button" transform="translate(206.000000, 1517.000000)">
                <path d="M32.0778992,26.0704365 C32.7983786,26.9781746 33.6619669,28 33.6619669,28 C38.9619316,27.8313492 41,24.3789683 41,24.3789683 C40.9210509,19.5446338 39.7392591,14.7930132 37.5456468,10.4900794 C35.6057755,8.98985407 33.2546026,8.12416345 30.8096581,8.00992063 L30.4740924,8.39186508 C34.5502291,9.63194444 36.4451886,11.4176587 36.4451886,11.4176587 C34.2094582,10.1950115 31.7595891,9.41851916 29.2305252,9.13095238 C27.6205485,8.95554531 25.9955807,8.9721954 24.3894959,9.18055556 C24.251799,9.18518463 24.1147587,9.20178092 23.9799084,9.23015873 C22.1046222,9.44002827 20.273271,9.94207135 18.5516391,10.718254 C17.6436376,11.1349206 17.1254847,11.4077381 17.1254847,11.4077381 C17.1254847,11.4077381 19.0994008,9.52777778 23.4321466,8.28769841 L23.1903419,8 C20.7453974,8.11424282 18.3942245,8.97993343 16.4543532,10.4801587 C14.2607409,14.7830926 13.0789491,19.5347132 13,24.3690476 C13,24.3690476 15.0133944,27.8412698 20.3133592,27.9900794 C20.3133592,27.9900794 21.2016214,26.9186508 21.9221008,26.0059524 C18.8773352,25.1031746 17.7275291,23.1984127 17.7275291,23.1984127 C17.7275291,23.1984127 17.9693338,23.3670635 18.3986606,23.6051587 C18.4255801,23.6337012 18.4573262,23.657214 18.4924216,23.6746032 C18.5664434,23.7242063 18.6355305,23.7440476 18.7095523,23.7936508 C19.2745154,24.1029236 19.8598267,24.3730624 20.4614029,24.6021825 C21.6028285,25.0488839 22.7821137,25.3908859 23.9848431,25.6240079 C26.0366255,26.0070054 28.141027,26.0070054 30.1928093,25.6240079 C31.3789813,25.4157294 32.5378343,25.0729314 33.6471625,24.6021825 C34.6161478,24.2397396 35.5414846,23.7688541 36.4057103,23.1984127 C36.4057103,23.1984127 35.2213606,25.1924603 32.0778992,26.0704365 Z M22.5025252,22.99547 C21.1389184,22.99547 20.0177306,21.8765675 20.0177306,20.5085166 C19.9032515,19.6496275 20.3497605,18.8082666 21.1651625,18.3464 C21.9805645,17.8845333 23.0194355,17.8845333 23.8348375,18.3464 C24.6502395,18.8082666 25.0967485,19.6496275 24.9822694,20.5085166 C25.0221894,21.1354452 24.7819193,21.7507959 24.3146304,22.2183923 C23.8473416,22.6859886 23.1915654,22.9672739 22.4924244,23 L22.5025252,22.99547 Z M31.4770744,22.9949496 C30.104299,23 29,21.772752 29,20.2273286 C29.1471986,18.8900832 30.3294072,17.9087534 31.6751431,18.0067413 C33.0208791,18.1047291 34.0475371,19.2468942 33.9983009,20.5912726 C33.9490647,21.9356511 32.8415913,23.0001243 31.4922712,23 L31.4770744,22.9949496 Z" id="Shape"></path>
            </g>
        </g>
    </g>
</svg>