<?xml version="1.0" encoding="UTF-8"?>
<svg width="24px" height="20px" viewBox="0 0 24 20" version="1.1" xmlns="http://www.w3.org/2000/svg" xmlns:xlink="http://www.w3.org/1999/xlink">
    <!-- Generator: Sketch 56.3 (81716) - https://sketch.com -->
    <title>Shape</title>
    <desc>Created with Sketch.</desc>
    <g id="Home" stroke="none" stroke-width="1" fill="none" fill-rule="evenodd">
        <g id="Desktop" transform="translate(-357.000000, -1524.000000)" fill="#FFFFFF" fill-rule="nonzero">
            <g id="github-button" transform="translate(341.000000, 1516.000000)">
                <g id="iconfinder_social-github_216082" transform="translate(16.000000, 8.000000)">
                    <path d="M16.1742857,11.6394271 C16.6354286,11.6394271 17.0177143,11.8635215 17.3502857,12.3066554 C17.6794286,12.7531592 17.8542857,13.2973884 17.8542857,13.9494524 C17.8542857,14.5981466 17.6794286,15.1474305 17.3502857,15.5888795 C17.0194286,16.0353833 16.6354286,16.2561078 16.1742857,16.2561078 C15.6977143,16.2561078 15.2794286,16.0353833 14.9485714,15.5888795 C14.6194286,15.1474305 14.4445714,14.5981466 14.4445714,13.9494524 C14.4445714,13.2973884 14.6194286,12.7531592 14.9485714,12.3066554 C15.2777143,11.8618366 15.696,11.6394271 16.1742857,11.6394271 M22.0714286,5.64279697 C23.3502857,7.00926706 24,8.66722831 24,10.6183656 C24,11.8786858 23.8525714,13.0160067 23.556,14.0269587 C23.256,15.0328559 22.8805714,15.853412 22.4348571,16.485257 C21.9822857,17.1187869 21.4268571,17.6731255 20.7651429,18.1516428 C20.1034286,18.6335299 19.4948571,18.9806234 18.9394286,19.2013479 C18.3822857,19.4237574 17.748,19.5939343 17.0348571,19.7169334 C16.32,19.8365628 15.7902857,19.9039596 15.4182857,19.9241786 C15.0531429,19.9393429 14.6674286,19.9477675 14.244,19.9477675 C14.1497143,19.9477675 13.8274286,19.9545072 13.3062857,19.9730413 C12.7902857,19.9949452 12.3462857,20 12,20 C11.6537143,20 11.2097143,19.9949452 10.6937143,19.9730413 C10.1725714,19.9545072 9.85028571,19.9477675 9.756,19.9477675 C9.33428571,19.9477675 8.94685714,19.9393429 8.58171429,19.9241786 C8.208,19.9039596 7.68,19.8365628 6.96514286,19.7169334 C6.24,19.5956192 5.61771429,19.4237574 5.06057143,19.2013479 C4.50514286,18.9806234 3.89485714,18.6335299 3.23657143,18.1516428 C2.57314286,17.6731255 2.01771429,17.1187869 1.56514286,16.485257 C1.11771429,15.853412 0.744,15.0328559 0.444,14.0269587 C0.147428571,13.0160067 0,11.8786858 0,10.6183656 C0,8.66722831 0.649714286,7.00758214 1.92857143,5.64279697 C1.788,5.57371525 1.78285714,4.88963774 1.91485714,3.59224937 C2.02285714,2.29317607 2.304,1.09519798 2.76342857,0 C4.36457143,0.166807077 6.34628571,1.05981466 8.71371429,2.66385847 C9.51257143,2.46335299 10.6011429,2.35551811 12,2.35551811 C13.4605714,2.35551811 14.556,2.46335299 15.288,2.66554339 C16.3662857,1.9494524 17.3965714,1.36647009 18.3822857,0.923336142 C19.3834286,0.48357203 20.1051429,0.222409436 20.5577143,0.153327717 L21.2365714,0.00168491997 C21.6994286,1.09519798 21.9805714,2.29317607 22.0868571,3.59393429 C22.2171429,4.88963774 22.212,5.57371525 22.0714286,5.64279697 M12.0514286,18.8188711 C14.9451429,18.8188711 17.1154286,18.4785173 18.6017143,17.7961247 C20.0674286,17.115417 20.8165714,15.7101938 20.8165714,13.5905644 C20.8165714,12.3605729 20.3485714,11.3327717 19.4074286,10.5105307 C18.9308571,10.0673968 18.3565714,9.79443976 17.712,9.69165965 C17.0691429,9.58887953 16.0851429,9.58887953 14.7634286,9.69165965 C13.4451429,9.79612468 12.5382857,9.84330244 12.0514286,9.84330244 C11.3914286,9.84330244 10.68,9.81297388 9.79028571,9.74389217 C8.89885714,9.67649537 8.19942857,9.63437237 7.69371429,9.61246841 C7.18971429,9.59730413 6.64971429,9.65796125 6.05142857,9.79443976 C5.46,9.9326032 4.97314286,10.1718618 4.58914286,10.5105307 C3.696,11.3007582 3.23485714,12.3251896 3.23485714,13.5905644 C3.23485714,15.7101938 3.96514286,17.115417 5.42914286,17.7961247 C6.88628571,18.4785173 9.05142857,18.8188711 11.9468571,18.8188711 L12.0514286,18.8188711 M7.87885714,11.6394271 C8.33828571,11.6394271 8.72228571,11.8635215 9.05314286,12.3066554 C9.38228571,12.7531592 9.55714286,13.2973884 9.55714286,13.9494524 C9.55714286,14.5981466 9.38228571,15.1474305 9.05314286,15.5888795 C8.724,16.0353833 8.33828571,16.2561078 7.87885714,16.2561078 C7.40057143,16.2561078 6.984,16.0353833 6.65142857,15.5888795 C6.32228571,15.1474305 6.14742857,14.5981466 6.14742857,13.9494524 C6.14742857,13.2973884 6.32228571,12.7531592 6.65142857,12.3066554 C6.98228571,11.8618366 7.39885714,11.6394271 7.87885714,11.6394271" id="Shape"></path>
                </g>
            </g>
        </g>
    </g>
</svg>