<?xml version="1.0" encoding="UTF-8"?>
<svg width="21px" height="21px" viewBox="0 0 21 21" version="1.1" xmlns="http://www.w3.org/2000/svg" xmlns:xlink="http://www.w3.org/1999/xlink">
    <!-- Generator: Sketch 56.3 (81716) - https://sketch.com -->
    <title>language icon</title>
    <desc>Created with Sketch.</desc>
    <g id="Home" stroke="none" stroke-width="1" fill="none" fill-rule="evenodd">
        <g id="Desktop" transform="translate(-987.000000, -13.000000)" fill="#FFFFFF" fill-rule="nonzero">
            <g id="nav-group" transform="translate(48.000000, 6.000000)">
                <g id="language-icon" transform="translate(939.000000, 7.000000)">
                    <path d="M10.5,0 C4.70142857,0 0,4.70142857 0,10.5 C0,12.915 0.816428571,15.1414286 2.18785714,16.9157143 L2.18785714,17.0764286 C2.22214286,17.0657143 2.25428571,17.055 2.28857143,17.0421429 C4.21285714,19.455 7.17642857,21 10.5,21 C13.8771429,21 16.8814286,19.4057143 18.8014286,16.9307143 C18.8057143,16.9328571 18.8078571,16.9328571 18.8121429,16.935 L18.8121429,16.9178571 C20.1835714,15.1414286 21,12.915 21,10.5 C21,4.70142857 16.2985714,0 10.5,0 Z M20.115,10.0628571 L14.8671429,10.0628571 C14.8392857,8.83928571 14.6935714,7.59642857 14.4214286,6.33214286 C15.9235714,6.14142857 17.355,5.83928571 18.69,5.44071429 C19.5278571,6.79285714 20.04,8.37214286 20.115,10.0628571 Z M7.005,10.0628571 C7.035,8.84357143 7.185,7.62214286 7.45928571,6.38571429 C8.51571429,6.50142857 9.60428571,6.56357143 10.7185714,6.56357143 C11.6828571,6.56357143 12.6278571,6.51642857 13.5492857,6.42857143 C13.8171429,7.65214286 13.965,8.85857143 13.995,10.0628571 L7.005,10.0628571 Z M13.995,10.9371429 C13.9628571,12.2828571 13.7807143,13.6307143 13.4507143,15 C12.5614286,14.9185714 11.6485714,14.8757143 10.7185714,14.8757143 C9.64071429,14.8757143 8.58428571,14.9335714 7.56,15.0428571 C7.22357143,13.6585714 7.03928571,12.2978571 7.005,10.9392857 L13.995,10.9392857 L13.995,10.9371429 Z M18.1778571,4.69285714 C16.9371429,5.04428571 15.6085714,5.31 14.22,5.47714286 C13.8471429,4.05 13.3135714,2.59285714 12.6021429,1.10571429 C14.8628571,1.60928571 16.8235714,2.90785714 18.1778571,4.69285714 Z M10.5,0.874285714 C10.8771429,0.874285714 11.25,0.895714286 11.6164286,0.938571429 C12.3707143,2.52857143 12.945,4.06285714 13.3414286,5.56928571 C12.4864286,5.64642857 11.61,5.685 10.7185714,5.685 C9.67714286,5.685 8.65714286,5.63142857 7.66928571,5.52642857 C8.06571429,4.03285714 8.63571429,2.51142857 9.38357143,0.936428571 C9.75,0.897857143 10.1228571,0.874285714 10.5,0.874285714 Z M8.39785714,1.10571429 C7.695,2.57571429 7.16571429,4.01357143 6.79714286,5.42357143 C5.42785714,5.23714286 4.12285714,4.95428571 2.90571429,4.58785714 C4.25357143,2.85642857 6.18214286,1.59857143 8.39785714,1.10571429 Z M2.38071429,5.32928571 C3.69428571,5.745 5.10642857,6.06642857 6.59142857,6.27642857 C6.31071429,7.56 6.16285714,8.82214286 6.13285714,10.0628571 L0.885,10.0628571 C0.962142857,8.325 1.50214286,6.70714286 2.38071429,5.32928571 Z M2.625,16.0328571 C1.60071429,14.5778571 0.970714286,12.8292857 0.885,10.9371429 L6.13285714,10.9371429 C6.165,12.3664286 6.35571429,13.77 6.68571429,15.1478571 C5.25857143,15.3471429 3.89571429,15.645 2.625,16.0328571 Z M3.19285714,16.7635714 C4.36071429,16.4292857 5.60571429,16.17 6.90857143,15.9964286 C7.28357143,17.3142857 7.78285714,18.6128571 8.39571429,19.8921429 C6.33428571,19.4357143 4.52142857,18.3128571 3.19285714,16.7635714 Z M9.38357143,20.0614286 C8.70642857,18.6364286 8.175,17.2542857 7.78714286,15.8978571 C8.73857143,15.8014286 9.72,15.7521429 10.7207143,15.7521429 C11.5735714,15.7521429 12.4092857,15.7885714 13.2278571,15.8592857 C12.8357143,17.2264286 12.3,18.6214286 11.6164286,20.0614286 C11.25,20.1042857 10.8771429,20.1257143 10.5,20.1257143 C10.1228571,20.1257143 9.75,20.1021429 9.38357143,20.0614286 Z M12.6021429,19.8942857 C13.2235714,18.5978571 13.7292857,17.2821429 14.1042857,15.945 C15.4285714,16.0992857 16.6992857,16.3435714 17.8907143,16.665 C16.5557143,18.2657143 14.7085714,19.425 12.6021429,19.8942857 Z M18.45,15.9278571 C17.1557143,15.555 15.7735714,15.2721429 14.3271429,15.0942857 C14.6507143,13.7314286 14.8371429,12.3471429 14.8671429,10.9371429 L20.115,10.9371429 C20.0314286,12.7842857 19.4292857,14.4942857 18.45,15.9278571 Z" id="Shape"></path>
                </g>
            </g>
        </g>
    </g>
</svg>