<?xml version="1.0" encoding="UTF-8"?>
<svg width="103px" height="102px" viewBox="0 0 103 102" version="1.1" xmlns="http://www.w3.org/2000/svg" xmlns:xlink="http://www.w3.org/1999/xlink">
    <!-- Generator: Sketch 56.3 (81716) - https://sketch.com -->
    <title>Shape</title>
    <desc>Created with Sketch.</desc>
    <g id="Icons-+-Images" stroke="none" stroke-width="1" fill="none" fill-rule="evenodd">
        <g id="ledger" transform="translate(0.000000, -3.000000)" fill="#FFFFFF" fill-rule="nonzero">
            <path d="M85.9013203,3 L38.8215311,3 L38.8215311,65.9585323 L102.006278,65.9585323 L102.006278,19.3804976 C102.031937,10.536567 94.7770182,3 85.9013203,3 Z M24.3631477,3 L16.4650629,3 C7.58936492,3 0,10.2033174 0,19.4061322 L0,27.2759487 L24.3631477,27.2759487 L24.3631477,3 Z M0,42.0158331 L24.3631477,42.0158331 L24.3631477,66.2917819 L0,66.2917819 L0,42.0158331 Z M77.6687888,104.974365 L85.5668737,104.974365 C94.4425716,104.974365 102.031937,97.771048 102.031937,88.5682332 L102.031937,80.7240513 L77.6687888,80.7240513 L77.6687888,104.974365 Z M38.8215311,80.7240513 L63.1846788,80.7240513 L63.1846788,105 L38.8215311,105 L38.8215311,80.7240513 Z M0,80.7240513 L0,88.5938678 C0,97.4377984 7.22919167,105 16.4650629,105 L24.3631477,105 L24.3631477,80.7240513 L0,80.7240513 Z" id="Shape"></path>
        </g>
    </g>
</svg>