<?xml version="1.0" encoding="UTF-8"?>
<svg width="24px" height="20px" viewBox="0 0 24 20" version="1.1" xmlns="http://www.w3.org/2000/svg" xmlns:xlink="http://www.w3.org/1999/xlink">
    <!-- Generator: Sketch 56.3 (81716) - https://sketch.com -->
    <title>Shape</title>
    <desc>Created with Sketch.</desc>
    <g id="Home" stroke="none" stroke-width="1" fill="none" fill-rule="evenodd">
        <g id="Desktop" transform="translate(-170.000000, -1584.000000)" fill="#FFFFFF" fill-rule="nonzero">
            <g id="github-button" transform="translate(170.000000, 1516.000000)">
                <g id="iconfinder_social-github_216082" transform="translate(0.000000, 8.000000)">
                    <g id="iconmonstr-reddit-1" transform="translate(0.000000, 60.000000)">
                        <path d="M24,9.779 C24,8.32 22.808,7.134 21.343,7.134 C20.628,7.134 19.98,7.42 19.503,7.88 C17.693,6.689 15.244,5.931 12.532,5.834 L14.015,1.165 L18.031,2.106 L18.025,2.164 C18.025,3.357 19,4.327 20.199,4.327 C21.397,4.327 22.371,3.357 22.371,2.164 C22.371,0.971 21.396,1.33226763e-15 20.199,1.33226763e-15 C19.279,1.33226763e-15 18.495,0.574 18.178,1.379 L13.849,0.364 C13.66,0.318 13.468,0.427 13.409,0.613 L11.755,5.82 C8.917,5.854 6.346,6.618 4.455,7.845 C3.981,7.407 3.352,7.133 2.656,7.133 C1.191,7.133 -2.66453526e-15,8.32 -2.66453526e-15,9.779 C-2.66453526e-15,10.749 0.533,11.59 1.317,12.05 C1.265,12.332 1.231,12.617 1.231,12.907 C1.231,16.818 6.039,20 11.95,20 C17.861,20 22.67,16.818 22.67,12.907 C22.67,12.633 22.641,12.363 22.595,12.097 C23.427,11.65 24,10.785 24,9.779 Z M6.776,11.595 C6.776,10.727 7.486,10.02 8.358,10.02 C9.23,10.02 9.939,10.727 9.939,11.595 C9.939,12.463 9.23,13.169 8.358,13.169 C7.486,13.169 6.776,12.463 6.776,11.595 L6.776,11.595 Z M15.837,16.264 C15.04,17.057 13.789,17.443 12.013,17.443 L12,17.44 L11.987,17.443 C10.21,17.443 8.959,17.057 8.163,16.264 C8.018,16.12 8.018,15.885 8.163,15.741 C8.308,15.596 8.544,15.596 8.689,15.741 C9.339,16.388 10.418,16.702 11.987,16.702 L12,16.705 L12.013,16.702 C13.582,16.702 14.661,16.387 15.311,15.74 C15.456,15.595 15.692,15.596 15.837,15.74 C15.982,15.885 15.982,16.119 15.837,16.264 Z M15.648,13.169 C14.776,13.169 14.067,12.463 14.067,11.595 C14.067,10.727 14.776,10.02 15.648,10.02 C16.52,10.02 17.229,10.727 17.229,11.595 C17.229,12.463 16.52,13.169 15.648,13.169 Z" id="Shape"></path>
                    </g>
                </g>
            </g>
        </g>
    </g>
</svg>