<?xml version="1.0" encoding="UTF-8"?>
<svg width="242px" height="228px" viewBox="0 0 242 228" version="1.1" xmlns="http://www.w3.org/2000/svg" xmlns:xlink="http://www.w3.org/1999/xlink">
    <!-- Generator: Sketch 56.3 (81716) - https://sketch.com -->
    <title>Group 2</title>
    <desc>Created with Sketch.</desc>
    <g id="Icons-+-Images" stroke="none" stroke-width="1" fill="none" fill-rule="evenodd">
        <g id="noun_smart-contract_1709924" transform="translate(-26.000000, 0.000000)" fill="#393B4A" fill-rule="nonzero">
            <g id="Group-2" transform="translate(26.000000, 0.000000)">
                <path d="M230.524177,96.608785 C225.250856,96.586342 220.635052,100.149497 219.316758,105.260318 L193.070077,105.260318 L193.070077,126.88915 L184.426823,126.88915 L184.426823,54.7930422 L216.435673,54.7930422 C217.886492,60.4174232 223.289159,64.084573 229.046182,63.3526347 C234.803205,62.6206965 239.118405,57.7180336 239.118405,51.9091979 C239.118405,46.1003622 234.803205,41.1976993 229.046182,40.465761 C223.289159,39.7338228 217.886492,43.4009726 216.435673,49.0253536 L184.426823,49.0253536 L184.426823,0 L54.7780142,0 L54.7780142,49.0253536 L33.1698794,49.0253536 L33.1698794,28.4347051 C38.7888782,26.9824961 42.4525187,21.5746545 41.7212809,15.812117 C40.9900431,10.0495794 36.0920717,5.73024671 30.2887948,5.73024671 C24.4855179,5.73024671 19.5875465,10.0495794 18.8563087,15.812117 C18.1250709,21.5746545 21.7887114,26.9824961 27.4077102,28.4347051 L27.4077102,54.7930422 L54.7780142,54.7930422 L54.7780142,105.260318 L24.1232737,105.260318 C22.6724544,99.635937 17.2697878,95.9687872 11.5127647,96.7007254 C5.75574167,97.4326637 1.44054232,102.335327 1.44054232,108.144162 C1.44054232,113.952998 5.75574167,118.855661 11.5127647,119.587599 C17.2697878,120.319537 22.6724544,116.652388 24.1232737,111.028007 L54.7780142,111.028007 L54.7780142,157.169516 L38.9320487,157.169516 L38.9320487,178.798348 L22.6827314,178.798348 C21.2319121,173.173967 15.8292455,169.506818 10.0722224,170.238756 C4.31519936,170.970694 0,175.873357 0,181.682193 C0,187.491028 4.31519936,192.393691 10.0722224,193.125629 C15.8292455,193.857568 21.2319121,190.190418 22.6827314,184.566037 L44.694218,184.566037 L44.694218,162.937204 L54.7780142,162.937204 L54.7780142,203.311025 L184.426823,203.311025 L184.426823,167.262971 L210.356585,167.262971 L210.356585,189.295542 C204.737586,190.747751 201.073945,196.155592 201.805183,201.91813 C202.536421,207.680667 207.434392,212 213.237669,212 C219.040946,212 223.938917,207.680667 224.670155,201.91813 C225.401393,196.155592 221.737753,190.747751 216.118754,189.295542 L216.118754,161.495282 L184.426823,161.495282 L184.426823,132.656839 L198.832246,132.656839 L198.832246,111.028007 L219.316758,111.028007 C220.816186,116.840422 226.518636,120.530177 232.429118,119.512324 C238.339599,118.494471 242.482228,113.10928 241.954786,107.129477 C241.427343,101.149674 236.406154,96.5743179 230.408934,96.608785 L230.524177,96.608785 Z M227.643092,46.1415092 C230.825451,46.1415092 233.405262,48.7237914 233.405262,51.9091979 C233.405262,55.0946044 230.825451,57.6768865 227.643092,57.6768865 C224.460734,57.6768865 221.880923,55.0946044 221.880923,51.9091979 C221.880923,48.7237914 224.460734,46.1415092 227.643092,46.1415092 Z M24.5266255,17.303066 C24.5266255,14.1176595 27.1064366,11.5353773 30.2887948,11.5353773 C33.471153,11.5353773 36.0509641,14.1176595 36.0509641,17.303066 C36.0509641,20.4884724 33.471153,23.0707546 30.2887948,23.0707546 C27.1064366,23.0707546 24.5266255,20.4884724 24.5266255,17.303066 Z M13.002287,113.911851 C9.81992877,113.911851 7.24011771,111.329569 7.24011771,108.144162 C7.24011771,104.958756 9.81992877,102.376474 13.002287,102.376474 C16.1846452,102.376474 18.7644563,104.958756 18.7644563,108.144162 C18.7644563,111.329569 16.1846452,113.911851 13.002287,113.911851 Z M11.5617447,187.449881 C8.37938645,187.449881 5.79957539,184.867599 5.79957539,181.682193 C5.79957539,178.496786 8.37938645,175.914504 11.5617447,175.914504 C14.7441029,175.914504 17.3239139,178.496786 17.3239139,181.682193 C17.3239139,184.867599 14.7441029,187.449881 11.5617447,187.449881 Z M218.999838,200.427181 C218.999838,203.612587 216.420027,206.194869 213.237669,206.194869 C210.055311,206.194869 207.4755,203.612587 207.4755,200.427181 C207.4755,197.241774 210.055311,194.659492 213.237669,194.659492 C216.420027,194.659492 218.999838,197.241774 218.999838,200.427181 Z M60.5401835,5.76768865 L178.664654,5.76768865 L178.664654,33.1642098 L60.5401835,33.1642098 L60.5401835,5.76768865 Z M178.664654,197.543336 L60.5401835,197.543336 L60.5401835,38.9318984 L178.664654,38.9318984 L178.664654,197.543336 Z M230.524177,113.911851 C227.341819,113.911851 224.762008,111.329569 224.762008,108.144162 C224.762008,104.958756 227.341819,102.376474 230.524177,102.376474 C233.706535,102.376474 236.286346,104.958756 236.286346,108.144162 C236.286346,111.329569 233.706535,113.911851 230.524177,113.911851 Z" id="Shape"></path>
                <rect id="Rectangle" x="80" y="75" width="78" height="6"></rect>
                <rect id="Rectangle" x="80" y="97" width="78" height="6"></rect>
                <rect id="Rectangle" x="80" y="118" width="78" height="6"></rect>
                <rect id="Rectangle" x="80" y="166" width="39" height="6"></rect>
                <rect id="Rectangle" x="154" y="13" width="17" height="9"></rect>
                <path d="M145,136 C136.163444,136 129,143.163444 129,152 C129,160.836556 136.163444,168 145,168 C153.836556,168 161,160.836556 161,152 C160.983989,143.170084 153.829916,136.016011 145,136 Z M145,162.181818 C139.376737,162.181818 134.818182,157.623263 134.818182,152 C134.818182,146.376737 139.376737,141.818182 145,141.818182 C150.623263,141.818182 155.181818,146.376737 155.181818,152 C155.181818,157.623263 150.623263,162.181818 145,162.181818 L145,162.181818 Z" id="Shape"></path>
                <polygon id="Path" points="146 170.857143 151.838998 181 155.474061 175.542857 162 175.142857 156.132379 165"></polygon>
                <polygon id="Path" points="128 175.142857 134.542857 175.542857 138.142857 181 144 170.857143 133.857143 165"></polygon>
                <rect id="Rectangle" x="149" y="209" width="26" height="6"></rect>
                <rect id="Rectangle" x="149" y="222" width="26" height="6"></rect>
            </g>
        </g>
    </g>
</svg>