<?xml version="1.0" encoding="UTF-8"?>
<svg width="101px" height="117px" viewBox="0 0 101 117" version="1.1" xmlns="http://www.w3.org/2000/svg" xmlns:xlink="http://www.w3.org/1999/xlink">
    <!-- Generator: Sketch 56.3 (81716) - https://sketch.com -->
    <title>Shape</title>
    <desc>Created with Sketch.</desc>
    <g id="Icons-+-Images" stroke="none" stroke-width="1" fill="none" fill-rule="evenodd">
        <g id="vertical_white" fill="#FFFFFF">
            <path d="M47.613,0.9042 C49.158,-0.3014 51.316,-0.3014 52.861,0.9042 C69.34,13.7665 88.167,13.6628 95.275,13.6236 C95.631,13.6216 95.957,13.6198 96.253,13.6198 C97.401,13.6198 98.501,14.0842 99.307,14.9089 C100.112,15.7336 100.555,16.8494 100.537528,18.0061 C100.203,38.6891 99.315,53.721 97.59,64.963 C95.863,76.213 93.251,84.005 89.242,89.979 C85.205,95.995 80.014,99.763 74.006,103.385 C71.999,104.595 69.935,105.772 67.767,107.009 C63.289,109.562 58.37,112.367 52.61,116.228 C51.173,117.192 49.301,117.192 47.863,116.228 C42.112,112.373 37.202,109.571 32.734,107.021 C30.559,105.78 28.488,104.599 26.476,103.384 C20.472,99.761 15.29,95.993 11.261,89.975 C7.261,84.001 4.657,76.209 2.937,64.961 C1.218,53.72 0.335,38.6885 0.000413088673,18.0061 C-0.018,16.8494 0.425,15.7336 1.23,14.9089 C2.036,14.0842 3.136,13.6198 4.284,13.6198 C4.576,13.6198 4.9,13.6216 5.253,13.6236 C12.304,13.6628 31.132,13.7675 47.613,0.9042 Z M8.649,22.2529 C9.032,40.549 9.897,53.781 11.405,63.646 C13.031,74.276 15.359,80.659 18.364,85.148 C21.341,89.593 25.238,92.575 30.879,95.979 C32.595,97.014 34.506,98.106 36.59,99.296 C40.571,101.57 45.178,104.202 50.237,107.478 C55.306,104.196 59.922,101.561 63.91,99.284 C65.987,98.099 67.894,97.01 69.606,95.978 C75.254,92.573 79.16,89.591 82.144,85.144 C85.156,80.655 87.491,74.273 89.122,63.644 C90.636,53.779 91.505,40.5486 91.888,22.2534 C83.155,22.1266 66.072,20.7875 50.237,9.6712 C34.418,20.776 17.356,22.1238 8.649,22.2529 Z" id="Shape"></path>
        </g>
    </g>
</svg>